<mxfile modified="2021-09-20T05:08:06.672Z" host="app.diagrams.net" agent="5.0 (Macintosh; Intel Mac OS X 10_15_7) AppleWebKit/537.36 (KHTML, like Gecko) Chrome/93.0.4577.82 Safari/537.36" etag="TQkmFBDXfDu2fDTPWKNN" version="15.2.9" type="github">
  <diagram id="l8hXMBHkgcEJcSW0mbfh" name="Page-1">
    <mxGraphModel dx="2115" dy="557" grid="1" gridSize="10" guides="1" tooltips="1" connect="1" arrows="1" fold="1" page="1" pageScale="1" pageWidth="1169" pageHeight="827" math="0" shadow="0">
      <root>
        <mxCell id="0" />
        <mxCell id="1" parent="0" />
        <mxCell id="9cI9FirN2BH65SFQEXJ9-3" value="1.发送Youtube链接" style="edgeStyle=orthogonalEdgeStyle;rounded=0;orthogonalLoop=1;jettySize=auto;html=1;entryX=-0.015;entryY=0.538;entryDx=0;entryDy=0;entryPerimeter=0;" edge="1" parent="1" source="8--HhbSZYtI3ddgJnD71-17" target="9cI9FirN2BH65SFQEXJ9-10">
          <mxGeometry relative="1" as="geometry">
            <mxPoint x="-160" y="234" as="targetPoint" />
          </mxGeometry>
        </mxCell>
        <mxCell id="8--HhbSZYtI3ddgJnD71-17" value="用户" style="shape=image;verticalLabelPosition=bottom;verticalAlign=top;imageAspect=0;aspect=fixed;image=data:image/svg+xml,PHN2ZyB4bWxucz0iaHR0cDovL3d3dy53My5vcmcvMjAwMC9zdmciIHZlcnNpb249IjEiIHZpZXdCb3g9IjAgMCA0OCA0OCIgZW5hYmxlLWJhY2tncm91bmQ9Im5ldyAwIDAgNDggNDgiPiYjeGE7ICAgIDxwb2x5Z29uIGZpbGw9IiNGRjk4MDAiIHBvaW50cz0iMjQsMzcgMTksMzEgMTksMjUgMjksMjUgMjksMzEiLz4mI3hhOyAgICA8ZyBmaWxsPSIjRkZBNzI2Ij4mI3hhOyAgICAgICAgPGNpcmNsZSBjeD0iMzMiIGN5PSIxOSIgcj0iMiIvPiYjeGE7ICAgICAgICA8Y2lyY2xlIGN4PSIxNSIgY3k9IjE5IiByPSIyIi8+JiN4YTsgICAgPC9nPiYjeGE7ICAgIDxwYXRoIGZpbGw9IiNGRkI3NEQiIGQ9Ik0zMywxM2MwLTcuNi0xOC01LTE4LDBjMCwxLjEsMCw1LjksMCw3YzAsNSw0LDksOSw5czktNCw5LTlDMzMsMTguOSwzMywxNC4xLDMzLDEzeiIvPiYjeGE7ICAgIDxwYXRoIGZpbGw9IiM0MjQyNDIiIGQ9Ik0yNCw0Yy02LjEsMC0xMCw0LjktMTAsMTFjMCwwLjgsMCwyLjMsMCwyLjNsMiwxLjd2LTVsMTItNGw0LDR2NWwyLTEuN2MwLDAsMC0xLjUsMC0yLjNjMC00LTEtOC02LTlsLTEtMiBIMjR6Ii8+JiN4YTsgICAgPGcgZmlsbD0iIzc4NDcxOSI+JiN4YTsgICAgICAgIDxjaXJjbGUgY3g9IjI4IiBjeT0iMTkiIHI9IjEiLz4mI3hhOyAgICAgICAgPGNpcmNsZSBjeD0iMjAiIGN5PSIxOSIgcj0iMSIvPiYjeGE7ICAgIDwvZz4mI3hhOyAgICA8cG9seWdvbiBmaWxsPSIjZmZmIiBwb2ludHM9IjI0LDQzIDE5LDMxIDI0LDMyIDI5LDMxIi8+JiN4YTsgICAgPHBvbHlnb24gZmlsbD0iI0QzMkYyRiIgcG9pbnRzPSIyMywzNSAyMi4zLDM5LjUgMjQsNDMuNSAyNS43LDM5LjUgMjUsMzUgMjYsMzQgMjQsMzIgMjIsMzQiLz4mI3hhOyAgICA8cGF0aCBmaWxsPSIjNTQ2RTdBIiBkPSJNMjksMzFMMjksMzFsLTUsMTJsLTUtMTJjMCwwLTExLDItMTEsMTNoMzJDNDAsMzMsMjksMzEsMjksMzF6Ii8+JiN4YTs8L3N2Zz4=;labelBackgroundColor=#ffffff;" parent="1" vertex="1">
          <mxGeometry x="-850" y="156" width="48" height="48" as="geometry" />
        </mxCell>
        <mxCell id="9cI9FirN2BH65SFQEXJ9-15" value="2.Youtube链接" style="edgeStyle=orthogonalEdgeStyle;rounded=0;orthogonalLoop=1;jettySize=auto;html=1;fontFamily=Helvetica;" edge="1" parent="1" source="9cI9FirN2BH65SFQEXJ9-10" target="9cI9FirN2BH65SFQEXJ9-12">
          <mxGeometry relative="1" as="geometry">
            <mxPoint x="-445" y="206" as="targetPoint" />
          </mxGeometry>
        </mxCell>
        <mxCell id="9cI9FirN2BH65SFQEXJ9-10" value="cloudflareworkers网页" style="aspect=fixed;html=1;points=[];align=center;image;fontSize=12;image=img/lib/azure2/general/Browser.svg;fontFamily=Helvetica;" vertex="1" parent="1">
          <mxGeometry x="-640" y="152" width="65" height="52" as="geometry" />
        </mxCell>
        <mxCell id="9cI9FirN2BH65SFQEXJ9-21" value="3.下载视频后上传至oss" style="edgeStyle=none;rounded=0;orthogonalLoop=1;jettySize=auto;html=1;fontFamily=Helvetica;" edge="1" parent="1" source="9cI9FirN2BH65SFQEXJ9-12" target="9cI9FirN2BH65SFQEXJ9-16">
          <mxGeometry relative="1" as="geometry" />
        </mxCell>
        <mxCell id="9cI9FirN2BH65SFQEXJ9-22" value="4.上传oss成功后，通过邮件发送oss的分享链接" style="edgeStyle=none;rounded=0;orthogonalLoop=1;jettySize=auto;html=1;fontFamily=Helvetica;" edge="1" parent="1" source="9cI9FirN2BH65SFQEXJ9-12">
          <mxGeometry relative="1" as="geometry">
            <mxPoint x="-826" y="160" as="targetPoint" />
            <Array as="points">
              <mxPoint x="-350" y="50" />
              <mxPoint x="-826" y="50" />
            </Array>
          </mxGeometry>
        </mxCell>
        <mxCell id="9cI9FirN2BH65SFQEXJ9-12" value="国外服务器&lt;br&gt;处理链接并下载Youtube视频" style="image;html=1;image=img/lib/clip_art/computers/Server_Rack_128x128.png;fontFamily=Helvetica;" vertex="1" parent="1">
          <mxGeometry x="-390" y="138" width="80" height="80" as="geometry" />
        </mxCell>
        <mxCell id="9cI9FirN2BH65SFQEXJ9-16" value="oss云存储" style="sketch=0;shadow=0;dashed=0;html=1;strokeColor=none;fillColor=#505050;labelPosition=center;verticalLabelPosition=bottom;verticalAlign=top;outlineConnect=0;align=center;shape=mxgraph.office.databases.web_store;fontFamily=Helvetica;" vertex="1" parent="1">
          <mxGeometry x="-150" y="150" width="50" height="54" as="geometry" />
        </mxCell>
      </root>
    </mxGraphModel>
  </diagram>
</mxfile>
